<svg xmlns="http://www.w3.org/2000/svg" viewBox="0 0 297.51 191.81"><title>アセット 1</title><g id="レイヤー_2" data-name="レイヤー 2"><g id="レイヤー_1-2" data-name="レイヤー 1"><path d="M97.46,80.19c-.9,2.49-1.8,5-2.69,7.46-.07.2-.11.42-.17.63-1.21,4.08-1.69,4.32-6.23,2.93,1-3.14,2.08-6.28,3.16-9.4q5.19-15,10.42-29.95,4.78-13.74,9.58-27.49C114.05,17.12,116.65,9.9,119,2.6c.69-2.16,1.56-3.07,3.78-2.37a14.06,14.06,0,0,0,2.22.3L108.75,47.42l1,1A8.45,8.45,0,0,1,111,46.4c7.78-6.77,16.86-10,27.09-8.58,12.41,1.77,21.88,10,22.55,23.91.45,9.61-3.63,17.78-10.29,24.6-7.09,7.25-15.75,11.48-25.87,11.8-11.4.35-22.44-4.86-25.94-16.68-.12-.4-.31-.79-.47-1.18Zm4.14-10.35a20.29,20.29,0,0,0,18.46,23.65c8.89.84,16.7-2.1,23.31-7.69,8.08-6.82,13.36-15.21,12-26.49-.93-7.63-7.55-14.82-15-16.52a28.26,28.26,0,0,0-19.41,2.46C110.6,50.38,103.71,58.27,101.6,69.84Z"/><path d="M84.85,69.77l-2.76-.45-58-9.43c-3.74-.61-4.39-.25-4.85,3.56C18.14,72.92,21,81,28.8,86.68c6.61,4.8,14.16,5.36,22,3.76a40.13,40.13,0,0,0,17-8c3.17-2.51,2.49-2.64,5.56.2.42.38.78.83,1.51,1.62-2.94,2.1-5.6,4.34-8.57,6.06C56.16,96.13,45.32,98,34,94.86c-12.58-3.51-21.37-14.55-20.65-29C14.25,48.4,29.55,33.29,45,29a38.5,38.5,0,0,1,18.23-1.09C76,30.5,85.16,38.11,87.45,52.35,88.11,56.4,88.58,59.93,84.85,69.77ZM22.07,54.13c1.6.46,2.5.82,3.43,1C42.9,58,60.32,60.74,77.71,63.67c2.52.42,3.72-.28,3.78-2.71.08-3.13.5-6.36-.1-9.37-2.57-12.84-12.9-19.55-25.74-19C45,33,36.17,37.7,28.91,45.31,26.49,47.85,24.56,50.88,22.07,54.13Z"/><path d="M199,28.79c-1.29,4-2.41,7.5-3.59,11q-5.15,15.49-10.34,31c-2.2,6.54-4.38,13.08-6.69,19.58a2.91,2.91,0,0,1-2.09,1.38,21,21,0,0,1-4.09-.39c1.31-4,2.5-7.64,3.72-11.31q5.15-15.5,10.29-31c2.19-6.54,4.4-13.08,6.7-19.58a2.29,2.29,0,0,1,1.72-1.12A31.23,31.23,0,0,1,199,28.79Z"/><path d="M201.35,16.42l-5.8-.65c1.17-3.51,2.26-6.92,3.5-10.28.12-.33,1.14-.48,1.73-.46,1.23,0,2.45.25,4.14.44Z"/><path d="M87.19,140.38c-13.18.25-26.35.38-39.52.56-.86,0-1.71.1-3,.17.91,4.13,1.75,8,2.62,11.9l2.94,0c8.52-.11,17-.18,25.54-.36,1.79,0,2.56.53,2.36,2.31s-.22,3.37-.55,5c-2.77,14-13.31,20.47-25.3,19.89-9.58-.47-17.82-4.62-24.58-11.36-9.76-9.74-15.35-21.18-12.66-35.34,2.47-13,12.87-19.64,25.11-19.12a35.85,35.85,0,0,1,20.41,7.69c.93.72,1.89,1.39,3,2.21l7.59-9.71a5.84,5.84,0,0,0-.67-.77C57.93,104,44,99.85,28.43,103.3A34.59,34.59,0,0,0,7.5,116.93c-8.95,12.2-9.38,25.64-4,39.11,7.55,18.8,21.56,30.6,41.52,34.77,9.33,2,18.58,1.13,27.16-3.39,16.46-8.68,23.16-25.67,18.44-44.47C90.11,140.86,89.21,140.34,87.19,140.38Z"/><path d="M158.08,125.75q-1.76-7.75-3.53-15.53l-12.54.16c.69,3.11,1.33,6.05,2,9,3.1,13.69,6.24,27.37,9.3,41.07,2.22,9.95-4.4,19.62-16,19.61-10.38,0-20.89-8.28-23.48-18.3-2.8-10.8-5.07-21.73-7.56-32.61-1.27-5.54-2.48-11.1-3.82-16.63-.16-.65-1-1.62-1.52-1.64-3.68-.1-7.37,0-11.17.07a4.48,4.48,0,0,0-.06.8c3.86,17,7.62,34,11.63,51,4.5,19,24.52,31.53,43.57,27.49a26.81,26.81,0,0,0,20.49-32.47C162.8,147.11,160.51,136.42,158.08,125.75Z"/><path d="M166.33,108.53h4.51c8.77,0,17.54-.09,26.31,0,12.28.18,23.39,10.89,24.17,23.13.64,9.88-5.42,17.75-15.17,19.72-.88.18-1.74.39-3.06.68l34.24,32c-.87.1-1.31.2-1.74.2-3.5,0-7-.18-10.48.06a7.84,7.84,0,0,1-6.4-2.56c-9.41-8.93-18.92-17.76-28.4-26.61-.55-.52-1.13-1-1.69-1.5l-.6.3c2.09,10,4.17,20,6.31,30.31-3.91,0-7.46.06-11-.06-.49,0-1.27-.87-1.39-1.44-3.23-15.1-6.38-30.21-9.57-45.31-1.92-9.12-3.88-18.23-5.82-27.35C166.45,109.72,166.43,109.3,166.33,108.53Zm27.75,32.55v0c2.49,0,5,.1,7.48,0,3.74-.19,6.06-2.08,7.2-5.62,2.3-7.14-4.65-16.17-12.63-16.32-4.55-.08-9.12,0-13.67-.08-1.67,0-1.8.8-1.54,2,1.32,6.18,2.67,12.36,4,18.55A1.78,1.78,0,0,0,187,141.1C189.38,141,191.73,141.08,194.08,141.08Z"/><path d="M297.51,184.47c-4.43,0-8.39.05-12.35-.06-.49,0-1.09-.75-1.42-1.29-3.23-5.31-6.46-10.63-9.58-16a3.32,3.32,0,0,0-3.34-1.88q-13.53.12-27.06,0c-1.65,0-2.27.44-2.51,2.15-.68,4.91-1.64,9.77-2.4,14.67-.28,1.78-.91,2.62-2.94,2.48-3-.21-6.1-.05-9.4-.05.63-3.66,1.18-7,1.8-10.34,1.76-9.54,3.56-19.07,5.32-28.61,2.09-11.32,4.13-22.65,6.28-34a2.17,2.17,0,0,1,1.57-1.34c3.28-.13,6.58-.16,9.86,0a3.32,3.32,0,0,1,2.14,1.55q16.43,26.94,32.74,53.94,4.95,8.15,9.91,16.3C296.52,182.68,296.88,183.35,297.51,184.47Zm-30.87-29.88C260.73,144.7,255,135.1,249,125.08a16.87,16.87,0,0,0-.7,2c-1.52,8.66-3,17.32-4.54,26-.26,1.42.13,1.86,1.57,1.85,6.5-.06,13,0,19.5,0C265.27,154.83,265.72,154.71,266.64,154.59Z"/></g></g></svg>